<?xml version="1.0" encoding="utf-8"?>
<!-- Generator: Adobe Illustrator 23.0.2, SVG Export Plug-In . SVG Version: 6.00 Build 0)  -->
<svg version="1.1" id="Слой_1" xmlns="http://www.w3.org/2000/svg" xmlns:xlink="http://www.w3.org/1999/xlink" x="0px" y="0px"
	 viewBox="0 0 249.5 60.1" style="enable-background:new 0 0 249.5 60.1;" xml:space="preserve">
<style type="text/css">
	.st0{fill:url(#SVGID_1_);}
	.st1{fill:url(#SVGID_2_);}
	.st2{fill:#1A171B;}
	.st3{fill:#E1001A;}
</style>
<g>
	<g>
		<g>
			
				<linearGradient id="SVGID_1_" gradientUnits="userSpaceOnUse" x1="79.2866" y1="994.3316" x2="85.283" y2="941.3633" gradientTransform="matrix(1 0 0 1 -47.6001 -939.8799)">
				<stop  offset="0" style="stop-color:#8A231A"/>
				<stop  offset="5.720000e-02" style="stop-color:#981D1A"/>
				<stop  offset="0.1925" style="stop-color:#B3131A"/>
				<stop  offset="0.3402" style="stop-color:#C80A1A"/>
				<stop  offset="0.5047" style="stop-color:#D7051A"/>
				<stop  offset="0.6993" style="stop-color:#DF011A"/>
				<stop  offset="1" style="stop-color:#E2001A"/>
			</linearGradient>
			<path class="st0" d="M37.6,19.3l-16,0c0,0-1-0.1-1.7,0.6c-0.7,0.7-0.7,1.5-0.7,1.5v8.1c0,0-0.1,0.9,0.6,1.6
				c0.6,0.6,1.4,0.6,1.4,0.6h16.4c0,6.1-4,6.4-8.8,6.4h-9.6v11.9h10.8c4.9,0,10.5,0.2,14.8-3.3c5-4.1,5.1-10.1,5.1-14.6V1l0,0H37.6
				L37.6,19.3z"/>
			
				<linearGradient id="SVGID_2_" gradientUnits="userSpaceOnUse" x1="48.5997" y1="965.4529" x2="83.0998" y2="965.4529" gradientTransform="matrix(1 0 0 1 -47.6001 -939.8799)">
				<stop  offset="0" style="stop-color:#595959"/>
				<stop  offset="2.610000e-02" style="stop-color:#555555"/>
				<stop  offset="0.3129" style="stop-color:#313131"/>
				<stop  offset="0.5798" style="stop-color:#161616"/>
				<stop  offset="0.817" style="stop-color:#060606"/>
				<stop  offset="1" style="stop-color:#000000"/>
			</linearGradient>
			<path class="st1" d="M21.9,13.4h15.7V1h-17C15.8,1,10.2,1,5.9,4.5C0.9,8.6,1,14.4,1,19.1v31h12V21.7C13,16.9,15.9,13.4,21.9,13.4
				z"/>
		</g>
	</g>
	<g>
		<path class="st2" d="M98.2,21.4c7,0,12.6,5.6,12.6,12.6c0,7-5.6,12.6-12.6,12.6c-7,0-12.6-5.6-12.6-12.6
			C85.6,27,91.2,21.4,98.2,21.4z M98.2,40.5c3.5,0,6.3-2.8,6.3-6.5c0-3.7-2.8-6.5-6.3-6.5c-3.5,0-6.3,2.8-6.3,6.5
			C91.9,37.7,94.7,40.5,98.2,40.5z"/>
		<path class="st2" d="M113.8,46.1V22h5.7v4.6c1.3-4.7,5.2-4.9,6.6-4.9h0.8v6.7h-0.9c-5.5,0-5.9,4.4-5.9,7.1v10.6L113.8,46.1
			L113.8,46.1z"/>
		<path class="st2" d="M141.3,22v6.1h-4.6v8.6c0,1.4,0,3.2,2.9,3.2h1.7v6.1h-1.7c-1.9,0-4.4,0.1-6.4-1.3c-3-2.1-2.8-5.6-2.8-8.1
			V15.5h6.3V22H141.3z"/>
		<path class="st2" d="M146.3,46.1V22h6.3v24.1L146.3,46.1L146.3,46.1z"/>
		<path class="st2" d="M157.1,39.9h7.5c1,0,2.5,0,2.5-1.3c0-1.6-2.5-2.6-4-3.3c-3.1-1.4-5.9-2.6-5.9-6.5c0-3.6,2.1-6.8,7.7-6.8h7.8
			v6.1h-7.2c-0.8,0-1.9-0.1-1.9,0.9c0,0.8,0.7,1.2,2.9,2.2c3.6,1.7,7.3,3.2,7.3,7.7c0,2.1-0.8,7.1-9.5,7.1h-7.3V39.9z"/>
		<path class="st2" d="M192.8,46.1V11.4h6.3v34.7H192.8z"/>
		<path class="st2" d="M227.9,35.9c-1.1,7.1-7.1,10.8-12.7,10.8c-7.1,0-12.6-5.5-12.6-12.6c0-7.1,5.5-12.6,12.6-12.6
			c5.1,0,9.3,2.6,11.5,7.1l-12.2,9.2l-3.1-4l6.3-4.9c-0.8-0.9-2.1-1.3-3.1-1.3c-3.1,0-5.6,2.8-5.6,6.4c0,4.4,3.6,6.5,6.5,6.5
			s5.5-2.1,6.1-5.4L227.9,35.9z"/>
		<path class="st2" d="M230,39.9c1.7,0,3.8-0.3,5.1-2.6c0.5-1,0.7-2.1,0.7-3.3c0-1.1-0.1-2.3-0.7-3.3c-1.2-2.3-3.4-2.6-5.1-2.6h-0.4
			V22h1c2,0,6.3,0.2,8.3,4.8c2.1-4.6,6.1-4.8,8.3-4.8h1v6.1h-0.4c-1.7,0-3.8,0.3-5.1,2.6c-0.5,1-0.7,2.1-0.7,3.3
			c0,1.1,0.2,2.2,0.7,3.2c1.3,2.5,3.4,2.7,5.1,2.7h0.4v6.1h-0.9c-2.3,0-6.3-0.2-8.4-4.8c-2.1,4.6-6.1,4.8-8.4,4.8h-0.9v-6.1
			C229.6,39.9,230,39.9,230,39.9z"/>
		<path class="st3" d="M152.8,15.8c0,1-0.8,1.8-1.8,1.8l-4.5,0v-4.5c0-1,0.8-1.8,1.8-1.8l4.5,0L152.8,15.8L152.8,15.8z"/>
		<path class="st2" d="M83.6,31.8L83.6,31.8c0,0.7-0.6,1.3-1.3,1.3v0h-9.4v13h-7.3V22.3c0-2.7,0.1-6.3,3.1-8.8
			c2.6-2.1,5.9-2.1,8.9-2.1h6v6.9h-5.3c-2.9,0-5.4-0.1-5.4,5.6v2.3h10.7L83.6,31.8L83.6,31.8z"/>
		<path class="st2" d="M188.7,22h-5v-1.2c0-3.2,1.5-3.2,3.2-3.2h1.7v-6.1h-1.4c-2.6,0-5.3,0-7.3,1.9c-2.5,2.3-2.5,5.9-2.5,9.1v23.6
			h6.3V28.1h3.7c0.7,0,1.2-0.6,1.3-1.3V22L188.7,22z"/>
	</g>
</g>
</svg>
