<?xml version="1.0" encoding="utf-8"?>
<!-- Generator: Adobe Illustrator 15.0.2, SVG Export Plug-In . SVG Version: 6.00 Build 0)  -->
<!DOCTYPE svg PUBLIC "-//W3C//DTD SVG 1.1//EN" "http://www.w3.org/Graphics/SVG/1.1/DTD/svg11.dtd">
<svg version="1.1" id="Слой_1" xmlns="http://www.w3.org/2000/svg" xmlns:xlink="http://www.w3.org/1999/xlink" x="0px" y="0px"
	 width="128px" height="59.5px" viewBox="0 0 128 59.5" enable-background="new 0 0 128 59.5" xml:space="preserve">
<g>
	<g>
		<path fill="#1D232A" d="M53.88,13.663c0.782,0,1.421,0.655,1.421,1.454v8.188c0,0.801,0.521,1.454,1.16,1.454
			s1.523-0.54,1.963-1.198l5.846-8.697c0.443-0.66,1.446-1.199,2.229-1.199h6.49c0.783,0,1.049,0.531,0.592,1.182l-8.52,12.121
			c-0.455,0.65-0.445,1.706,0.024,2.346l9.319,12.693c0.471,0.641,0.215,1.163-0.568,1.163h-6.727c-0.779,0-1.793-0.532-2.248-1.183
			l-6.412-9.18c-0.455-0.652-1.35-1.183-1.987-1.183c-0.639,0-1.16,0.651-1.16,1.454v8.636c0,0.8-0.64,1.454-1.421,1.454h-4.877
			c-0.783,0-1.423-0.654-1.423-1.454V15.117c0-0.799,0.64-1.454,1.423-1.454H53.88z"/>
		<path fill="#1D232A" d="M77.857,43.168c-0.782,0-1.424-0.654-1.424-1.454V15.117c0-0.799,0.642-1.454,1.424-1.454h12.357
			c0.782,0,2.063,0.03,2.846,0.071c0,0,2.363,0.121,3.668,0.504c1.304,0.385,2.303,1.127,3,2.226
			c0.696,1.104,1.045,2.683,1.045,4.744c0,1.378-0.121,2.515-0.361,3.412c-0.239,0.901-0.694,1.642-1.365,2.218
			c-0.668,0.578-1.621,0.971-2.852,1.176l0,0c0,0.174,0.631,0.424,1.404,0.555c0,0,1.012,0.168,1.752,0.729
			c0.738,0.563,1.237,1.296,1.498,2.207c0.258,0.908,0.389,2.057,0.389,3.438c0,2.33-0.35,4.088-1.047,5.279
			c-0.696,1.189-1.705,1.981-3.024,2.367c-1.317,0.389-3.112,0.581-5.379,0.581L77.857,43.168L77.857,43.168z M85.582,20.141
			c-0.784,0-1.421,0.655-1.421,1.455v2.414c0,0.799,0.637,1.455,1.421,1.455h2.675c0.783,0,2.063-0.025,2.847-0.063
			c0,0,0.226-0.012,0.679-0.158c0.452-0.145,0.77-0.417,0.954-0.811c0.184-0.396,0.277-0.99,0.277-1.789
			c0-0.936-0.158-1.586-0.473-1.953s-0.964-0.551-1.943-0.551H85.582L85.582,20.141z M85.582,30.918
			c-0.784,0-1.421,0.652-1.421,1.455v2.863c0,0.799,0.637,1.453,1.421,1.453h2.941c0.783,0,2.062-0.033,2.845-0.076
			c0,0,0.125-0.008,0.635-0.172c0.507-0.168,0.881-0.465,1.118-0.897c0.236-0.431,0.354-1.043,0.354-1.837
			c0-1.17-0.231-1.93-0.699-2.271c-0.471-0.345-1.358-0.518-2.668-0.518H85.582z"/>
		<path fill="#1D232A" d="M119.115,20.525c-0.785,0-1.426,0.654-1.426,1.455v19.732c0,0.801-0.642,1.454-1.424,1.454h-4.875
			c-0.783,0-1.424-0.653-1.424-1.454V21.98c0-0.801-0.642-1.455-1.425-1.455h-4.524c-0.781,0-1.424-0.654-1.424-1.455v-3.953
			c0-0.799,0.643-1.454,1.424-1.454h20.035c0.785,0,1.424,0.655,1.424,1.454v3.953c0,0.801-0.639,1.455-1.424,1.455H119.115z"/>
	</g>
	<path fill="#1D232A" d="M41.561,13.663c-0.714,0-1.905,0-2.646,0H6.468c-0.741,0-1.348,0.619-1.348,1.376v27.865
		c0,0.757,0.483,1.752,1.072,2.211l16.725,13.027c0.59,0.459,1.554,0.459,2.145,0l16.726-13.027
		c0.589-0.459,1.072-1.454,1.072-2.211V15.039C42.86,14.282,42.274,13.663,41.561,13.663z M10.316,20.342
		c0-0.757,0.606-1.374,1.349-1.374h7.443c0.741,0,1.19,0.597,0.997,1.328l-2.783,10.55c-0.192,0.729-0.502,1.9-0.687,2.604
		c-0.185,0.701,0.248,1.438,0.965,1.638l7.409,2.062c0.714,0.201,1.124,0.957,0.911,1.68l-3.211,10.865
		c-0.213,0.723-0.87,0.939-1.458,0.479l-9.863-7.68c-0.59-0.459-1.072-1.454-1.072-2.21V20.342z M37.661,40.283
		c0,0.756-0.479,1.751-1.069,2.21l-7.146,5.563c-0.588,0.459-0.896,0.242-0.681-0.481l3.672-12.431
		c0.215-0.726-0.197-1.479-0.911-1.679l-7.564-2.104c-0.713-0.198-1.142-0.961-0.95-1.69l2.475-9.375
		c0.193-0.731,0.958-1.327,1.696-1.327h9.131c0.74,0,1.346,0.616,1.346,1.373L37.661,40.283L37.661,40.283z"/>
	<path opacity="0.8" fill="#9D9FA2" d="M36.315,18.968h-9.131c-0.739,0-1.503,0.597-1.696,1.328l-2.475,9.375
		c-0.192,0.729,0.237,1.492,0.95,1.69l7.564,2.104c0.714,0.198,1.126,0.953,0.911,1.679l-3.672,12.431
		c-0.215,0.725,0.093,0.94,0.681,0.481l7.146-5.563c0.59-0.459,1.069-1.454,1.069-2.21V20.342
		C37.661,19.585,37.056,18.968,36.315,18.968z"/>
	<path opacity="0.8" fill="#F5A900" d="M25.01,37.148l-7.409-2.063c-0.717-0.199-1.15-0.938-0.965-1.639
		c0.185-0.702,0.495-1.873,0.688-2.604l2.783-10.549c0.193-0.73-0.256-1.328-0.997-1.328h-7.443c-0.743,0-1.349,0.617-1.349,1.374
		v19.941c0,0.756,0.482,1.751,1.072,2.21l9.863,7.68c0.588,0.46,1.245,0.242,1.458-0.479l3.211-10.866
		C26.134,38.105,25.725,37.35,25.01,37.148z"/>
	<path fill="#1D232A" d="M38.565,1.861c-0.754,0-1.368,0.693-1.368,1.549v0.822c0,0.852-0.614,1.547-1.366,1.547h-6.397
		c-0.752,0-1.368-0.695-1.368-1.547V3.41c0-0.854-0.616-1.549-1.368-1.549h-5.293c-0.751,0-1.368,0.693-1.368,1.549v0.822
		c0,0.852-0.613,1.547-1.366,1.547H12.43c-0.75,0-1.366-0.695-1.366-1.547V3.41c0-0.854-0.614-1.549-1.367-1.549H6.459
		c-0.753,0-1.366,0.693-1.366,1.549v6.345c0,0.851,0.613,1.55,1.366,1.55H41.51c0.752,0,1.366-0.699,1.366-1.55V3.41
		c0-0.854-0.614-1.549-1.366-1.549H38.565z"/>
</g>
</svg>
