<?xml version="1.0" encoding="utf-8"?>
<!-- Generator: Adobe Illustrator 23.0.2, SVG Export Plug-In . SVG Version: 6.00 Build 0)  -->
<svg version="1.1" id="Слой_1" xmlns="http://www.w3.org/2000/svg" xmlns:xlink="http://www.w3.org/1999/xlink" x="0px" y="0px"
	 viewBox="0 0 157 48.7" style="enable-background:new 0 0 157 48.7;" xml:space="preserve">
<style type="text/css">
	.st0{fill:#EE2524;}
</style>
<path class="st0" d="M35.2,23.1c0,0,0-7.1-6.2-9.6c-7-2.8-20.8-2.1-27.2,12.4c-3.1,7-1.9,16.7,1.4,19.5c1.5,1.3,3.3,2.8,6.8,3.1
	c4.5,0.3,20,0,20,0l5.2-20.7L25.5,28h-7.8l-1.2,7.5l5.9,0.5c0,0,1.9,5.9-3.6,6.1C11,42.5,6.5,37.7,9.8,28.5c3.1-8.9,8-9.5,10.6-9.6
	c4.6-0.2,5.2,4.7,5.2,4.7L35.2,23.1z"/>
<polygon class="st0" points="42.2,12.9 52.5,12.9 47.4,41 62,41 60.2,48.7 36.1,48.7 "/>
<path class="st0" d="M65.7,12.9h9.6L74,36.4l10.1-23.5H95c0,0-0.2,23.5,0,23.5s8.1-23.5,8.1-23.5h8.3L99.2,48.7H87.6l-0.2-25.3
	L75.7,48.7H64.8L65.7,12.9z"/>
<polygon class="st0" points="118.1,12.9 116.2,24.8 140.7,24.8 157,8 148.3,0 135.6,12.9 "/>
<polygon class="st0" points="113.9,36.4 111.4,48.7 143.5,48.7 146.4,36.4 "/>
</svg>
